<svg width="26" height="26" viewBox="0 0 26 26" fill="none" xmlns="http://www.w3.org/2000/svg">
<path d="M3.30276 21.8262L3.30154 21.8273C3.25595 21.8689 3.21375 21.9041 3.1752 21.9338C3.16988 21.8785 3.16666 21.8149 3.16666 21.7425V13.195C3.16666 7.66374 7.61062 3.16663 13 3.16663C18.3894 3.16663 22.8333 7.66374 22.8333 13.195V21.7425C22.8333 21.8028 22.8311 21.8571 22.8273 21.9056C22.8053 21.8865 22.7821 21.8655 22.758 21.8424L22.7493 21.8342L22.7405 21.8262L21.6608 20.8436C21.6601 20.843 21.6595 20.8424 21.6588 20.8418C20.8754 20.1239 19.6392 20.1243 18.8564 20.8432C18.8562 20.8433 18.8561 20.8435 18.8559 20.8436L16.6908 22.8247L16.6892 22.8261C16.6888 22.8266 16.6739 22.8387 16.64 22.8387C16.6061 22.8387 16.5912 22.8266 16.5908 22.8261L16.5892 22.8247L14.4241 20.8436C14.4239 20.8434 14.4236 20.8431 14.4233 20.8429C13.6401 20.124 12.4032 20.124 11.62 20.8429C11.6197 20.8431 11.6194 20.8434 11.6192 20.8436L9.45407 22.8247L9.4525 22.8261C9.45203 22.8266 9.43714 22.8387 9.40331 22.8387C9.36949 22.8387 9.3546 22.8266 9.35413 22.8261L9.35256 22.8247L7.18746 20.8436C7.18715 20.8433 7.18683 20.8431 7.18652 20.8428C6.40366 20.1243 5.16754 20.124 4.38434 20.842C4.38373 20.8425 4.38312 20.8431 4.38251 20.8436L3.30276 21.8262Z" stroke="#0C111D" stroke-width="2"/>
<path d="M13 17.4092C11.2992 17.4092 9.59835 16.8784 8.17918 15.8167C7.82168 15.5459 7.74589 15.0367 8.01672 14.6792C8.28756 14.3217 8.79671 14.2458 9.15421 14.5167C11.4184 16.2175 14.5817 16.2175 16.8458 14.5167C17.2033 14.2458 17.7125 14.3217 17.9833 14.6792C18.2542 15.0367 18.1784 15.5459 17.8209 15.8167C16.4017 16.8784 14.7009 17.4092 13 17.4092Z" fill="#0C111D"/>
<path d="M15.0783 9.74997C15.0783 10.8978 14.1478 11.8283 13 11.8283C11.8522 11.8283 10.9217 10.8978 10.9217 9.74997C10.9217 8.60214 11.8522 7.67163 13 7.67163C14.1478 7.67163 15.0783 8.60214 15.0783 9.74997Z" stroke="#0C111D"/>
</svg>
