<svg width="25" height="25" viewBox="0 0 25 25" fill="none" xmlns="http://www.w3.org/2000/svg">
<rect x="5" y="5" width="14" height="16" rx="3" fill="#6538F1"/>
<path fill-rule="evenodd" clip-rule="evenodd" d="M12.5 22.9167C18.2531 22.9167 22.9167 18.2531 22.9167 12.5C22.9167 6.74688 18.2531 2.08333 12.5 2.08333C6.74688 2.08333 2.08333 6.74688 2.08333 12.5C2.08333 18.2531 6.74688 22.9167 12.5 22.9167ZM15.625 10.4167C15.625 11.2455 15.2958 12.0403 14.7097 12.6264C14.1237 13.2124 13.3288 13.5417 12.5 13.5417C11.6712 13.5417 10.8763 13.2124 10.2903 12.6264C9.70424 12.0403 9.375 11.2455 9.375 10.4167C9.375 9.58787 9.70424 8.79301 10.2903 8.20696C10.8763 7.62091 11.6712 7.29167 12.5 7.29167C13.3288 7.29167 14.1237 7.62091 14.7097 8.20696C15.2958 8.79301 15.625 9.58787 15.625 10.4167ZM6.25 17.7083C6.97709 16.7374 7.92059 15.9494 9.00554 15.4069C10.0905 14.8644 11.287 14.5824 12.5 14.5833C13.713 14.5824 14.9095 14.8644 15.9945 15.4069C17.0794 15.9494 18.0229 16.7374 18.75 17.7083C18.0229 18.6793 17.0794 19.4673 15.9945 20.0098C14.9095 20.5522 13.713 20.8342 12.5 20.8333C11.287 20.8342 10.0905 20.5522 9.00554 20.0098C7.92059 19.4673 6.97709 18.6793 6.25 17.7083Z" fill="#EAE8FE"/>
</svg>
